<svg width="1414" height="247" viewBox="0 0 1414 247" fill="none" xmlns="http://www.w3.org/2000/svg">
<rect y="0.0859375" width="1414" height="247" fill="url(#paint0_linear_537_133)"/>
<path d="M0 0.0859375H1414V15.0859C861.799 15.0859 552.201 15.0859 0 15.0859V0.0859375Z" fill="#401F0C"/>
<rect x="14.0388" y="23.0859" width="10.2099" height="210" fill="#492C0B"/>
<rect y="23.0859" width="10.2099" height="210" fill="#492C0B"/>
<rect x="42.116" y="23.0859" width="10.2099" height="210" fill="#492C0B"/>
<path d="M28.0771 23.0859H38.287V233.086H28.0771V23.0859Z" fill="#492C0B"/>
<rect x="70.1931" y="23.0859" width="10.2099" height="210" fill="#492C0B"/>
<rect x="56.1543" y="23.0859" width="10.2099" height="210" fill="#492C0B"/>
<rect x="98.2703" y="23.0859" width="10.2099" height="210" fill="#492C0B"/>
<path d="M84.2314 23.0859H94.4413V233.086H84.2314V23.0859Z" fill="#492C0B"/>
<rect x="238.656" y="23.0859" width="10.2099" height="210" fill="#492C0B"/>
<rect x="224.618" y="23.0859" width="10.2099" height="210" fill="#492C0B"/>
<rect x="266.733" y="23.0859" width="10.2099" height="210" fill="#492C0B"/>
<path d="M252.695 23.0859H262.904V233.086H252.695V23.0859Z" fill="#492C0B"/>
<rect x="294.811" y="23.0859" width="10.2099" height="210" fill="#492C0B"/>
<rect x="280.772" y="23.0859" width="10.2099" height="210" fill="#492C0B"/>
<rect x="322.888" y="23.0859" width="10.2099" height="210" fill="#492C0B"/>
<rect x="350.965" y="23.0859" width="10.2099" height="210" fill="#492C0B"/>
<rect x="336.927" y="23.0859" width="10.2099" height="210" fill="#492C0B"/>
<path d="M308.849 23.0859H319.059V233.086H308.849V23.0859Z" fill="#492C0B"/>
<rect x="126.347" y="23.0859" width="10.2099" height="210" fill="#492C0B"/>
<rect x="112.309" y="23.0859" width="10.2099" height="210" fill="#492C0B"/>
<rect x="154.425" y="23.0859" width="10.2099" height="210" fill="#492C0B"/>
<path d="M140.386 23.0859H150.596V233.086H140.386V23.0859Z" fill="#492C0B"/>
<rect x="182.502" y="23.0859" width="10.2099" height="210" fill="#492C0B"/>
<rect x="168.463" y="23.0859" width="10.2099" height="210" fill="#492C0B"/>
<rect x="210.579" y="23.0859" width="10.2099" height="210" fill="#492C0B"/>
<path d="M196.54 23.0859H206.75V233.086H196.54V23.0859Z" fill="#492C0B"/>
<rect x="1066.86" y="23.0859" width="10.2099" height="210" fill="#492C0B"/>
<rect x="1052.83" y="23.0859" width="10.2099" height="210" fill="#492C0B"/>
<rect x="1094.94" y="23.0859" width="10.2099" height="210" fill="#492C0B"/>
<path d="M1080.9 23.0859H1091.11V233.086H1080.9V23.0859Z" fill="#492C0B"/>
<rect x="1123.02" y="23.0859" width="10.2099" height="210" fill="#492C0B"/>
<rect x="1108.98" y="23.0859" width="10.2099" height="210" fill="#492C0B"/>
<rect x="1151.1" y="23.0859" width="10.2099" height="210" fill="#492C0B"/>
<path d="M1137.06 23.0859H1147.27V233.086H1137.06V23.0859Z" fill="#492C0B"/>
<rect x="1291.48" y="23.0859" width="10.2099" height="210" fill="#492C0B"/>
<rect x="1277.44" y="23.0859" width="10.2099" height="210" fill="#492C0B"/>
<rect x="1319.56" y="23.0859" width="10.2099" height="210" fill="#492C0B"/>
<path d="M1305.52 23.0859H1315.73V233.086H1305.52V23.0859Z" fill="#492C0B"/>
<rect x="1347.64" y="23.0859" width="10.2099" height="210" fill="#492C0B"/>
<rect x="1333.6" y="23.0859" width="10.2099" height="210" fill="#492C0B"/>
<rect x="1375.71" y="23.0859" width="10.2099" height="210" fill="#492C0B"/>
<rect x="1403.79" y="23.0859" width="10.2099" height="210" fill="#492C0B"/>
<rect x="1389.75" y="23.0859" width="10.2099" height="210" fill="#492C0B"/>
<path d="M1361.67 23.0859H1371.88V233.086H1361.67V23.0859Z" fill="#492C0B"/>
<rect x="1179.17" y="23.0859" width="10.2099" height="210" fill="#492C0B"/>
<rect x="1165.13" y="23.0859" width="10.2099" height="210" fill="#492C0B"/>
<rect x="1207.25" y="23.0859" width="10.2099" height="210" fill="#492C0B"/>
<path d="M1193.21 23.0859H1203.42V233.086H1193.21V23.0859Z" fill="#492C0B"/>
<rect x="1235.33" y="23.0859" width="10.2099" height="210" fill="#492C0B"/>
<rect x="1221.29" y="23.0859" width="10.2099" height="210" fill="#492C0B"/>
<rect x="1263.4" y="23.0859" width="10.2099" height="210" fill="#492C0B"/>
<path d="M1249.37 23.0859H1259.58V233.086H1249.37V23.0859Z" fill="#492C0B"/>
<rect x="715.621" y="23.0859" width="10.2099" height="210" fill="#492C0B"/>
<rect x="701.583" y="23.0859" width="10.2099" height="210" fill="#492C0B"/>
<rect x="743.698" y="23.0859" width="10.2099" height="210" fill="#492C0B"/>
<path d="M729.66 23.0859H739.87V233.086H729.66V23.0859Z" fill="#492C0B"/>
<rect x="771.775" y="23.0859" width="10.2099" height="210" fill="#492C0B"/>
<rect x="757.737" y="23.0859" width="10.2099" height="210" fill="#492C0B"/>
<rect x="799.853" y="23.0859" width="10.2099" height="210" fill="#492C0B"/>
<path d="M785.814 23.0859H796.024V233.086H785.814V23.0859Z" fill="#492C0B"/>
<rect x="940.239" y="23.0859" width="10.2099" height="210" fill="#492C0B"/>
<rect x="926.2" y="23.0859" width="10.2099" height="210" fill="#492C0B"/>
<rect x="968.316" y="23.0859" width="10.2099" height="210" fill="#492C0B"/>
<path d="M954.277 23.0859H964.487V233.086H954.277V23.0859Z" fill="#492C0B"/>
<rect x="996.394" y="23.0859" width="10.2099" height="210" fill="#492C0B"/>
<rect x="982.354" y="23.0859" width="10.2099" height="210" fill="#492C0B"/>
<rect x="1024.47" y="23.0859" width="10.2099" height="210" fill="#492C0B"/>
<rect x="1052.55" y="23.0859" width="10.2099" height="210" fill="#492C0B"/>
<rect x="1038.51" y="23.0859" width="10.2099" height="210" fill="#492C0B"/>
<path d="M1010.43 23.0859H1020.64V233.086H1010.43V23.0859Z" fill="#492C0B"/>
<rect x="827.93" y="23.0859" width="10.2099" height="210" fill="#492C0B"/>
<rect x="813.891" y="23.0859" width="10.2099" height="210" fill="#492C0B"/>
<rect x="856.007" y="23.0859" width="10.2099" height="210" fill="#492C0B"/>
<path d="M841.969 23.0859H852.179V233.086H841.969V23.0859Z" fill="#492C0B"/>
<rect x="884.084" y="23.0859" width="10.2099" height="210" fill="#492C0B"/>
<rect x="870.045" y="23.0859" width="10.2099" height="210" fill="#492C0B"/>
<rect x="912.161" y="23.0859" width="10.2099" height="210" fill="#492C0B"/>
<path d="M898.123 23.0859H908.333V233.086H898.123V23.0859Z" fill="#492C0B"/>
<rect x="364.378" y="23.0859" width="10.2099" height="210" fill="#492C0B"/>
<rect x="350.34" y="23.0859" width="10.2099" height="210" fill="#492C0B"/>
<rect x="392.456" y="23.0859" width="10.2099" height="210" fill="#492C0B"/>
<path d="M378.417 23.0859H388.627V233.086H378.417V23.0859Z" fill="#492C0B"/>
<rect x="420.533" y="23.0859" width="10.2099" height="210" fill="#492C0B"/>
<rect x="406.494" y="23.0859" width="10.2099" height="210" fill="#492C0B"/>
<rect x="448.61" y="23.0859" width="10.2099" height="210" fill="#492C0B"/>
<path d="M434.571 23.0859H444.781V233.086H434.571V23.0859Z" fill="#492C0B"/>
<rect x="588.996" y="23.0859" width="10.2099" height="210" fill="#492C0B"/>
<rect x="574.958" y="23.0859" width="10.2099" height="210" fill="#492C0B"/>
<rect x="617.073" y="23.0859" width="10.2099" height="210" fill="#492C0B"/>
<path d="M603.035 23.0859H613.245V233.086H603.035V23.0859Z" fill="#492C0B"/>
<rect x="645.151" y="23.0859" width="10.2099" height="210" fill="#492C0B"/>
<rect x="631.112" y="23.0859" width="10.2099" height="210" fill="#492C0B"/>
<rect x="673.228" y="23.0859" width="10.2099" height="210" fill="#492C0B"/>
<rect x="701.305" y="23.0859" width="10.2099" height="210" fill="#492C0B"/>
<rect x="687.267" y="23.0859" width="10.2099" height="210" fill="#492C0B"/>
<path d="M659.189 23.0859H669.399V233.086H659.189V23.0859Z" fill="#492C0B"/>
<rect x="476.687" y="23.0859" width="10.2099" height="210" fill="#492C0B"/>
<rect x="462.648" y="23.0859" width="10.2099" height="210" fill="#492C0B"/>
<rect x="504.765" y="23.0859" width="10.2099" height="210" fill="#492C0B"/>
<path d="M490.726 23.0859H500.936V233.086H490.726V23.0859Z" fill="#492C0B"/>
<rect x="532.842" y="23.0859" width="10.2099" height="210" fill="#492C0B"/>
<rect x="518.803" y="23.0859" width="10.2099" height="210" fill="#492C0B"/>
<rect x="560.918" y="23.0859" width="10.2099" height="210" fill="#492C0B"/>
<path d="M546.88 23.0859H557.09V233.086H546.88V23.0859Z" fill="#492C0B"/>
<defs>
<linearGradient id="paint0_linear_537_133" x1="707" y1="0.0859375" x2="707" y2="247.086" gradientUnits="userSpaceOnUse">
<stop stop-color="#793826"/>
<stop offset="1" stop-color="#E5B372"/>
</linearGradient>
</defs>
</svg>
