<svg width="387" height="612" viewBox="0 0 387 612" fill="none" xmlns="http://www.w3.org/2000/svg"
    xmlns:xlink="http://www.w3.org/1999/xlink">
    <path
        d="M368 428.397C368 578.399 290.098 308.912 194 308.912C97.9025 308.912 20 578.399 20 428.397C20 278.395 97.9025 156.795 194 156.795C290.098 156.795 368 278.395 368 428.397Z"
        fill="#813F16" />
    <path
        d="M103.149 302.888V319.957C175.193 341.169 214.837 340.974 284.149 319.957V302.888C223.914 320.375 186.221 323.475 132.649 310.869C123.36 308.683 113.593 306.025 103.149 302.888Z"
        fill="#828282" />
    <path
        d="M284.149 358.112C214.371 379.076 174.759 379.802 103.149 358.112V376.185C176.551 397.21 216.253 397.451 284.149 376.185V358.112Z"
        fill="#828282" />
    <path
        d="M284.149 414.842C212.107 436.909 172.435 437.855 103.149 414.842V433.92C174.31 455.959 213.903 454.877 284.149 433.92V414.842Z"
        fill="#828282" />
    <path
        d="M284.149 302.888V319.957V358.112V376.185V414.842V433.92V465.046C382.552 439.955 399.557 408.133 373.149 324.977C331.696 194.448 319.089 173.67 241.649 156.795C234.678 185.27 222.274 209.391 195.127 242.643C179.66 261.589 159.408 283.5 132.649 310.869C186.221 323.475 223.914 320.375 284.149 302.888Z"
        fill="#ACACAC" />
    <path
        d="M145.649 156.795C68.2085 173.67 55.6016 194.448 14.1489 324.977C-12.259 408.133 4.74571 439.955 103.149 465.046V433.92V414.842V376.185V358.112V319.957V302.888C113.593 306.025 123.36 308.683 132.649 310.869C159.408 283.5 179.66 261.589 195.127 242.643C170.25 212.17 159.83 193.145 145.649 156.795Z"
        fill="#C4C4C4" />
    <path
        d="M284.149 319.957C214.837 340.974 175.193 341.169 103.149 319.957V358.112C174.759 379.802 214.371 379.076 284.149 358.112V319.957Z"
        fill="#ACACAC" />
    <path
        d="M284.149 376.185C216.253 397.451 176.551 397.21 103.149 376.185V414.842C172.435 437.855 212.107 436.909 284.149 414.842V376.185Z"
        fill="#ACACAC" />
    <path
        d="M103.149 465.046V563.445C120.944 576.783 132.381 580.182 154.649 581.017V607.625C225.507 611.911 255.922 609.382 284.149 591.058V465.046V433.92C213.903 454.877 174.31 455.959 103.149 433.92V465.046Z"
        fill="#C4C4C4" />
    <path
        d="M145.649 156.795L147.978 155.886C147.531 154.741 146.318 154.09 145.117 154.352L145.649 156.795ZM14.1489 324.977L11.7662 324.221L14.1489 324.977ZM103.149 563.445H100.649C100.649 564.233 101.02 564.974 101.65 565.446L103.149 563.445ZM154.649 607.625H152.149C152.149 608.947 153.178 610.04 154.498 610.12L154.649 607.625ZM284.149 591.058L285.51 593.154C286.22 592.693 286.649 591.904 286.649 591.058H284.149ZM105.649 216.035C105.649 214.655 104.53 213.535 103.149 213.535C101.768 213.535 100.649 214.655 100.649 216.035H105.649ZM286.649 216.035C286.649 214.655 285.53 213.535 284.149 213.535C282.768 213.535 281.649 214.655 281.649 216.035H286.649ZM157.149 518.764C157.149 517.383 156.03 516.264 154.649 516.264C153.268 516.264 152.149 517.383 152.149 518.764H157.149ZM241.649 156.795L242.181 154.352C240.856 154.063 239.543 154.883 239.221 156.2L241.649 156.795ZM373.149 324.977L375.532 324.221L373.149 324.977ZM195.127 242.643L197.064 244.224L195.127 242.643ZM145.117 154.352C106.224 162.827 82.9796 172.408 64.4157 196.75C46.0828 220.789 32.4491 259.093 11.7662 324.221L16.5317 325.734C37.3015 260.332 50.6975 222.983 68.3914 199.782C85.8542 176.883 107.633 167.637 146.181 159.237L145.117 154.352ZM11.7662 324.221C-1.44865 365.833 -4.17036 395.58 9.71686 418.098C23.5425 440.517 53.3394 454.925 102.531 467.469L103.767 462.624C54.5553 450.075 26.6482 436.027 13.9727 415.474C1.3587 395.02 3.33861 367.278 16.5317 325.734L11.7662 324.221ZM100.649 465.046V563.445H105.649V465.046H100.649ZM101.65 565.446C110.673 572.209 118.222 576.556 126.432 579.291C134.626 582.022 143.324 583.094 154.555 583.515L154.743 578.519C143.706 578.105 135.552 577.06 128.012 574.548C120.487 572.041 113.42 568.019 104.648 561.445L101.65 565.446ZM152.149 581.017V607.625H157.149V581.017H152.149ZM154.498 610.12C225.302 614.403 256.513 611.978 285.51 593.154L282.788 588.961C255.33 606.785 225.711 609.419 154.8 605.129L154.498 610.12ZM286.649 591.058V465.046H281.649V591.058H286.649ZM286.649 302.888V216.035H281.649V302.888H286.649ZM105.649 302.888V216.035H100.649V302.888H105.649ZM105.649 319.957V302.888H100.649V319.957H105.649ZM286.649 319.957V302.888H281.649V319.957H286.649ZM102.443 322.355C138.58 332.995 166.759 338.318 194.676 338.293C222.596 338.268 250.096 332.895 284.874 322.35L283.423 317.565C248.89 328.036 221.912 333.269 194.671 333.293C167.426 333.317 139.762 328.131 103.855 317.559L102.443 322.355ZM286.649 358.112V319.957H281.649V358.112H286.649ZM105.649 358.112V319.957H100.649V358.112H105.649ZM283.429 355.718C248.652 366.166 221.565 371.518 194.328 371.607C167.094 371.697 139.552 366.526 103.874 355.719L102.424 360.505C138.356 371.388 166.426 376.699 194.344 376.607C222.261 376.515 249.868 371.022 284.868 360.506L283.429 355.718ZM105.649 376.185V358.112H100.649V376.185H105.649ZM286.649 376.185V358.112H281.649V376.185H286.649ZM102.461 378.589C139.263 389.13 167.792 394.514 195.711 394.544C223.644 394.575 250.811 389.247 284.896 378.571L283.402 373.8C249.591 384.389 222.959 389.574 195.717 389.544C168.46 389.515 140.436 384.265 103.837 373.782L102.461 378.589ZM286.649 414.842V376.185H281.649V414.842H286.649ZM105.649 414.842V376.185H100.649V414.842H105.649ZM283.417 412.452C247.497 423.454 219.836 429.13 192.605 429.247C165.389 429.364 138.434 423.928 103.937 412.47L102.361 417.215C137.151 428.77 164.674 434.367 192.626 434.247C220.563 434.127 248.759 428.297 284.881 417.233L283.417 412.452ZM105.649 465.046V433.92H100.649V465.046H105.649ZM105.649 433.92V414.842H100.649V433.92H105.649ZM286.649 465.046V433.92H281.649V465.046H286.649ZM286.649 433.92V414.842H281.649V433.92H286.649ZM102.409 436.308C138.125 447.369 166.082 452.68 194.004 452.543C221.919 452.406 249.637 446.825 284.864 436.315L283.434 431.524C248.415 441.972 221.214 447.41 193.98 447.543C166.753 447.677 139.334 442.51 103.889 431.532L102.409 436.308ZM157.149 581.017V518.764H152.149V581.017H157.149ZM241.117 159.237C279.665 167.637 301.444 176.883 318.906 199.782C336.6 222.983 349.996 260.332 370.766 325.734L375.532 324.221C354.849 259.093 341.215 220.789 322.882 196.75C304.318 172.408 281.073 162.827 242.181 154.352L241.117 159.237ZM370.766 325.734C383.959 367.278 385.939 395.02 373.325 415.474C360.65 436.027 332.743 450.075 283.531 462.624L284.767 467.469C333.958 454.925 363.755 440.517 377.581 418.098C391.468 395.58 388.746 365.833 375.532 324.221L370.766 325.734ZM283.452 300.487C223.515 317.888 186.271 320.919 133.222 308.436L132.076 313.303C186.17 326.032 224.313 322.863 284.846 305.289L283.452 300.487ZM133.222 308.436C123.991 306.264 114.275 303.619 103.868 300.494L102.43 305.282C112.912 308.431 122.728 311.103 132.076 313.303L133.222 308.436ZM239.221 156.2C232.361 184.223 220.17 208.015 193.191 241.062L197.064 244.224C224.377 210.767 236.996 186.318 244.077 157.389L239.221 156.2ZM193.191 241.062C177.795 259.921 157.604 281.769 130.861 309.121L134.437 312.617C161.213 285.23 181.526 263.257 197.064 244.224L193.191 241.062ZM143.32 157.703C157.585 194.266 168.129 213.525 193.191 244.224L197.064 241.062C172.371 210.815 162.076 192.023 147.978 155.886L143.32 157.703Z"
        fill="black" />
    <path
        d="M299.5 98C299.5 151.168 252.176 194.5 193.5 194.5C134.824 194.5 87.5 151.168 87.5 98C87.5 44.8321 134.824 1.5 193.5 1.5C252.176 1.5 299.5 44.8321 299.5 98Z"
        fill="#813F16" stroke="black" stroke-width="3" />
    <image x="122" y="35" width="144" height="60" href="./olho-bravo.svg" />
    <image x="144" y="110" width="100" height="60" href="./boca-aberta.svg" />

</svg>