<svg width="296" height="582" viewBox="0 0 296 582" fill="none" xmlns="http://www.w3.org/2000/svg">
<path d="M94.3294 14.9879H15.7626V106.409H94.3294V14.9879Z" fill="#EFEFEF"/>
<path d="M187.659 14.9879H109.092V106.409H187.659V14.9879Z" fill="#EFEFEF"/>
<path d="M280.988 14.9879H202.421V106.409H280.988V14.9879Z" fill="#EFEFEF"/>
<path d="M202.421 116.9V208.821H280.988V116.9H202.421Z" fill="#EFEFEF"/>
<path d="M109.092 116.9V208.821H187.659V116.9H109.092Z" fill="#EFEFEF"/>
<path d="M15.7626 116.9V208.821H94.3294V116.9H15.7626Z" fill="#EFEFEF"/>
<path d="M15.7626 219.312V311.233H94.3294V219.312H15.7626Z" fill="#EFEFEF"/>
<path d="M109.092 219.312V311.233H187.659V219.312H109.092Z" fill="#EFEFEF"/>
<path d="M202.421 219.312V311.233H280.988V219.312H202.421Z" fill="#EFEFEF"/>
<path d="M202.421 321.724V413.644H280.988V321.724H202.421Z" fill="#EFEFEF"/>
<path d="M109.092 321.724V413.644H187.659V321.724H109.092Z" fill="#EFEFEF"/>
<path d="M15.7626 321.724V413.644H94.3294V321.724H15.7626Z" fill="#EFEFEF"/>
<path d="M15.7626 516.056H94.3294V424.135H55.046H15.7626V516.056Z" fill="#EFEFEF"/>
<path d="M109.092 516.056H187.659V424.135H109.092V516.056Z" fill="#EFEFEF"/>
<path d="M202.421 516.056H280.988V424.135H202.421V516.056Z" fill="#EFEFEF"/>
<path d="M15.7626 106.409V116.9H94.3294V106.409H15.7626Z" fill="#9F5121"/>
<path d="M109.092 106.409V116.9H187.659V106.409H109.092Z" fill="#9F5121"/>
<path d="M202.421 106.409V116.9H280.988V106.409H202.421Z" fill="#9F5121"/>
<path d="M202.421 208.821V219.312H280.988V208.821H202.421Z" fill="#9F5121"/>
<path d="M109.092 208.821V219.312H187.659V208.821H109.092Z" fill="#9F5121"/>
<path d="M15.7626 208.821V219.312H94.3294V208.821H15.7626Z" fill="#9F5121"/>
<path d="M15.7626 311.233V321.724H94.3294V311.233H15.7626Z" fill="#9F5121"/>
<path d="M109.092 311.233V321.724H187.659V311.233H109.092Z" fill="#9F5121"/>
<path d="M202.421 311.233V321.724H280.988V311.233H202.421Z" fill="#9F5121"/>
<path d="M202.421 424.135H280.988V413.644H202.421V424.135Z" fill="#9F5121"/>
<path d="M109.092 424.135H187.659V413.644H109.092V424.135Z" fill="#9F5121"/>
<path d="M15.7626 424.135H55.046H94.3294V413.644H15.7626V424.135Z" fill="#9F5121"/>
<path d="M1 14.9879V516.056H15.7626V424.135V413.644V321.724V311.233V219.312V208.821V116.9V106.409V14.9879H1Z" fill="#88371C"/>
<path d="M94.3294 516.056H109.092V424.135V413.644V321.724V311.233V219.312V208.821V116.9V106.409V14.9879H94.3294V106.409V116.9V208.821V219.312V311.233V321.724V413.644V424.135V516.056Z" fill="#88371C"/>
<path d="M187.659 516.056H202.421V424.135V413.644V321.724V311.233V219.312V208.821V116.9V106.409V14.9879H187.659V106.409V116.9V208.821V219.312V311.233V321.724V413.644V424.135V516.056Z" fill="#88371C"/>
<path d="M280.988 424.135V516.056H295V14.9879H280.988V106.409V116.9V208.821V219.312V311.233V321.724V413.644V424.135Z" fill="#88371C"/>
<path d="M1 516.056V581H295V516.056H280.988H202.421H187.659H109.092H94.3294H15.7626H1Z" fill="#793826"/>
<path d="M1 14.9879H15.7626H94.3294H109.092H187.659H202.421H280.988H295V1H280.988H1V14.9879Z" fill="#793826"/>
<path d="M1 581H0.5V581.5H1V581ZM1 1V0.5H0.5V1H1ZM295 581V581.5H295.5V581H295ZM295 1H295.5V0.5H295V1ZM1.5 581V516.056H0.5V581H1.5ZM1.5 516.056V14.9879H0.5V516.056H1.5ZM1 516.556H15.7626V515.556H1V516.556ZM1 15.4879H15.7626V14.4879H1V15.4879ZM15.7626 516.556H94.3294V515.556H15.7626V516.556ZM15.7626 15.4879H94.3294V14.4879H15.7626V15.4879ZM94.3294 516.556H109.092V515.556H94.3294V516.556ZM94.3294 15.4879H109.092V14.4879H94.3294V15.4879ZM109.092 516.556H187.659V515.556H109.092V516.556ZM109.092 15.4879H187.659V14.4879H109.092V15.4879ZM187.659 516.556H202.421V515.556H187.659V516.556ZM187.659 15.4879H202.421V14.4879H187.659V15.4879ZM202.421 516.556H280.988V515.556H202.421V516.556ZM202.421 15.4879H280.988V14.4879H202.421V15.4879ZM16.2626 516.056V424.135H15.2626V516.056H16.2626ZM94.8294 516.056V424.135H93.8294V516.056H94.8294ZM109.592 516.056V424.135H108.592V516.056H109.592ZM188.159 516.056V424.135H187.159V516.056H188.159ZM109.092 424.635H187.659V423.635H109.092V424.635ZM202.921 516.056V424.135H201.921V516.056H202.921ZM281.488 516.056V424.135H280.488V516.056H281.488ZM202.421 424.635H280.988V423.635H202.421V424.635ZM16.2626 424.135V413.644H15.2626V424.135H16.2626ZM94.8294 424.135V413.644H93.8294V424.135H94.8294ZM15.7626 414.144H94.3294V413.144H15.7626V414.144ZM109.592 424.135V413.644H108.592V424.135H109.592ZM188.159 424.135V413.644H187.159V424.135H188.159ZM109.092 414.144H187.659V413.144H109.092V414.144ZM202.921 424.135V413.644H201.921V424.135H202.921ZM281.488 424.135V413.644H280.488V424.135H281.488ZM202.421 414.144H280.988V413.144H202.421V414.144ZM16.2626 413.644V321.724H15.2626V413.644H16.2626ZM94.8294 413.644V321.724H93.8294V413.644H94.8294ZM15.7626 322.224H94.3294V321.224H15.7626V322.224ZM16.2626 321.724V311.233H15.2626V321.724H16.2626ZM94.8294 321.724V311.233H93.8294V321.724H94.8294ZM15.7626 311.733H94.3294V310.733H15.7626V311.733ZM16.2626 311.233V219.312H15.2626V311.233H16.2626ZM94.8294 311.233V219.312H93.8294V311.233H94.8294ZM15.7626 219.812H94.3294V218.812H15.7626V219.812ZM16.2626 219.312V208.821H15.2626V219.312H16.2626ZM94.8294 219.312V208.821H93.8294V219.312H94.8294ZM15.7626 209.321H94.3294V208.321H15.7626V209.321ZM16.2626 208.821V116.9H15.2626V208.821H16.2626ZM94.8294 208.821V116.9H93.8294V208.821H94.8294ZM15.7626 117.4H94.3294V116.4H15.7626V117.4ZM16.2626 116.9V106.409H15.2626V116.9H16.2626ZM94.8294 116.9V106.409H93.8294V116.9H94.8294ZM15.7626 106.909H94.3294V105.909H15.7626V106.909ZM109.592 413.644V321.724H108.592V413.644H109.592ZM188.159 413.644V321.724H187.159V413.644H188.159ZM109.092 322.224H187.659V321.224H109.092V322.224ZM109.592 321.724V311.233H108.592V321.724H109.592ZM188.159 321.724V311.233H187.159V321.724H188.159ZM109.092 311.733H187.659V310.733H109.092V311.733ZM109.592 311.233V219.312H108.592V311.233H109.592ZM188.159 311.233V219.312H187.159V311.233H188.159ZM109.092 219.812H187.659V218.812H109.092V219.812ZM109.592 219.312V208.821H108.592V219.312H109.592ZM188.159 219.312V208.821H187.159V219.312H188.159ZM109.092 209.321H187.659V208.321H109.092V209.321ZM109.592 208.821V116.9H108.592V208.821H109.592ZM188.159 208.821V116.9H187.159V208.821H188.159ZM109.092 117.4H187.659V116.4H109.092V117.4ZM109.592 116.9V106.409H108.592V116.9H109.592ZM188.159 116.9V106.409H187.159V116.9H188.159ZM109.092 106.909H187.659V105.909H109.092V106.909ZM202.921 413.644V321.724H201.921V413.644H202.921ZM281.488 413.644V321.724H280.488V413.644H281.488ZM202.421 322.224H280.988V321.224H202.421V322.224ZM202.921 321.724V311.233H201.921V321.724H202.921ZM281.488 321.724V311.233H280.488V321.724H281.488ZM202.421 311.733H280.988V310.733H202.421V311.733ZM202.921 311.233V219.312H201.921V311.233H202.921ZM281.488 311.233V219.312H280.488V311.233H281.488ZM202.421 219.812H280.988V218.812H202.421V219.812ZM202.921 219.312V208.821H201.921V219.312H202.921ZM281.488 219.312V208.821H280.488V219.312H281.488ZM202.421 209.321H280.988V208.321H202.421V209.321ZM202.921 208.821V116.9H201.921V208.821H202.921ZM281.488 208.821V116.9H280.488V208.821H281.488ZM202.421 117.4H280.988V116.4H202.421V117.4ZM202.921 116.9V106.409H201.921V116.9H202.921ZM281.488 116.9V106.409H280.488V116.9H281.488ZM202.421 106.909H280.988V105.909H202.421V106.909ZM0.5 1V14.9879H1.5V1H0.5ZM295 580.5H1V581.5H295V580.5ZM280.988 516.556H295V515.556H280.988V516.556ZM295.5 581V516.056H294.5V581H295.5ZM295.5 516.056V14.9879H294.5V516.056H295.5ZM280.988 0.5H1V1.5H280.988V0.5ZM295 0.5H280.988V1.5H295V0.5ZM295.5 14.9879V1H294.5V14.9879H295.5ZM15.2626 14.9879V106.409H16.2626V14.9879H15.2626ZM94.8294 106.409V14.9879H93.8294V106.409H94.8294ZM108.592 14.9879V106.409H109.592V14.9879H108.592ZM188.159 106.409V14.9879H187.159V106.409H188.159ZM201.921 14.9879V106.409H202.921V14.9879H201.921ZM281.488 106.409V14.9879H280.488V106.409H281.488ZM295 14.4879H280.988V15.4879H295V14.4879ZM15.7626 424.635H55.046V423.635H15.7626V424.635ZM55.046 424.635H94.3294V423.635H55.046V424.635Z" fill="black"/>
</svg>
