<svg width="123" height="75" viewBox="0 0 123 75" fill="none" xmlns="http://www.w3.org/2000/svg">
<path fill-rule="evenodd" clip-rule="evenodd" d="M14.0812 1.04481C15.1613 0.813369 16.2244 1.5013 16.4559 2.58136C17.0831 5.50854 17.0463 8.5381 15.9204 11.0779C33.8908 18.7056 47.8585 22.2951 61.7347 22.2198C75.6113 22.1446 89.5822 18.404 107.567 11.0485C106.454 8.51475 106.42 5.49726 107.045 2.58136C107.276 1.5013 108.339 0.813369 109.419 1.04481C110.499 1.27625 111.187 2.33942 110.956 3.41947C110.281 6.56663 110.701 9.06098 111.921 10.5923C111.992 10.6631 112.057 10.7397 112.117 10.8218C113.357 12.1857 115.758 13.1894 120.204 12.5225C121.296 12.3587 122.314 13.1114 122.478 14.2037C122.642 15.2961 121.889 16.3144 120.797 16.4783C117.027 17.0438 113.892 16.6538 111.517 15.362C105.863 32.4888 98.8147 46.3669 90.9286 56.3423C82.6405 66.8262 73.2601 73.1969 63.4493 74.178C53.5551 75.1674 43.7798 70.626 34.888 60.4997C26.398 50.8309 18.5773 35.9406 11.9652 15.3717C9.59277 16.6557 6.46406 17.0424 2.70359 16.4783C1.61124 16.3144 0.858547 15.2961 1.0224 14.2037C1.18625 13.1114 2.2046 12.3587 3.29695 12.5225C7.7428 13.1894 10.144 12.1856 11.3841 10.8216C11.4438 10.7396 11.5092 10.663 11.5794 10.5921C12.7992 9.06085 13.219 6.56655 12.5447 3.41947C12.3132 2.33942 13.0012 1.27625 14.0812 1.04481ZM36.619 56.3603C29.2747 47.4347 22.2949 34.0229 16.2274 15.5451C33.5883 22.755 47.6283 26.2964 61.7564 26.2198C75.8768 26.1432 89.912 22.4528 107.257 15.4901C101.785 31.6715 95.0981 44.6183 87.7907 53.8616C87.0789 54.7621 86.3625 55.6257 85.6421 56.4526C76.0083 53.5227 68.3661 51.9779 60.743 51.9599C53.1957 51.9421 45.7948 53.421 36.619 56.3603ZM39.5247 59.6405C47.3398 67.8036 55.3567 70.9673 63.0513 70.1978C69.5722 69.5457 76.2043 66.0383 82.5881 59.7155C74.0429 57.2163 67.3229 55.9755 60.7335 55.9599C54.1969 55.9445 47.677 57.1348 39.5247 59.6405Z" fill="black"/>
<path d="M16.2274 15.5451C22.2949 34.0229 29.2747 47.4347 36.619 56.3603C45.7948 53.421 53.1957 51.9421 60.743 51.9599C68.3661 51.9779 76.0083 53.5227 85.6421 56.4526C86.3625 55.6257 87.0789 54.7621 87.7907 53.8616C95.0981 44.6183 101.785 31.6715 107.257 15.4901C89.912 22.4528 75.8768 26.1432 61.7564 26.2198C47.6283 26.2964 33.5883 22.755 16.2274 15.5451Z" fill="black"/>
<path d="M39.5247 59.6405C47.3398 67.8036 55.3567 70.9673 63.0513 70.1978C69.5722 69.5457 76.2043 66.0383 82.5881 59.7155C74.0429 57.2163 67.3229 55.9755 60.7335 55.9599C54.1969 55.9445 47.677 57.1348 39.5247 59.6405Z" fill="#BB0000"/>
<path d="M16.4559 2.58136L16.9448 2.47659L16.9448 2.47659L16.4559 2.58136ZM14.0812 1.04481L14.186 1.53371L14.186 1.53371L14.0812 1.04481ZM15.9204 11.0779L15.4633 10.8752C15.409 10.9977 15.4061 11.1369 15.4553 11.2615C15.5045 11.3861 15.6017 11.4858 15.725 11.5381L15.9204 11.0779ZM61.7347 22.2198L61.732 21.7198L61.732 21.7198L61.7347 22.2198ZM107.567 11.0485L107.756 11.5113C107.881 11.4602 107.98 11.3609 108.031 11.2359C108.081 11.1109 108.079 10.9708 108.025 10.8474L107.567 11.0485ZM107.045 2.58136L107.534 2.68612L107.534 2.68612L107.045 2.58136ZM109.419 1.04481L109.524 0.555908L109.524 0.555908L109.419 1.04481ZM110.956 3.41947L111.445 3.52424L111.445 3.52424L110.956 3.41947ZM111.921 10.5923L111.53 10.9038C111.541 10.918 111.554 10.9315 111.566 10.9443L111.921 10.5923ZM112.117 10.8218L111.712 11.116C111.723 11.1307 111.735 11.1447 111.747 11.1582L112.117 10.8218ZM120.204 12.5225L120.129 12.0281L120.129 12.0281L120.204 12.5225ZM122.478 14.2037L122.973 14.1296L122.973 14.1296L122.478 14.2037ZM120.797 16.4783L120.871 16.9728L120.871 16.9728L120.797 16.4783ZM111.517 15.362L111.756 14.9228C111.626 14.8519 111.471 14.8425 111.333 14.8971C111.196 14.9516 111.089 15.0645 111.043 15.2052L111.517 15.362ZM90.9286 56.3423L90.5364 56.0322L90.5364 56.0322L90.9286 56.3423ZM63.4493 74.178L63.499 74.6755L63.499 74.6755L63.4493 74.178ZM34.888 60.4997L35.2638 60.1698L34.888 60.4997ZM11.9652 15.3717L12.4412 15.2187C12.3957 15.0771 12.2896 14.9631 12.1516 14.9077C12.0135 14.8523 11.858 14.8612 11.7272 14.932L11.9652 15.3717ZM2.70359 16.4783L2.62942 16.9728L2.62942 16.9728L2.70359 16.4783ZM1.0224 14.2037L1.51687 14.2779L1.51687 14.2779L1.0224 14.2037ZM3.29695 12.5225L3.37112 12.0281L3.37112 12.0281L3.29695 12.5225ZM11.3841 10.8216L11.754 11.158C11.7662 11.1446 11.7776 11.1305 11.7883 11.1159L11.3841 10.8216ZM11.5794 10.5921L11.9344 10.9442C11.9472 10.9314 11.9592 10.9178 11.9705 10.9037L11.5794 10.5921ZM12.5447 3.41947L13.0336 3.31471L13.0336 3.31471L12.5447 3.41947ZM16.2274 15.5451L16.4192 15.0834C16.2386 15.0084 16.031 15.0455 15.8876 15.1784C15.7442 15.3112 15.6914 15.5154 15.7523 15.7011L16.2274 15.5451ZM36.619 56.3603L36.2329 56.678C36.3631 56.8361 36.5765 56.8989 36.7716 56.8365L36.619 56.3603ZM61.7564 26.2198L61.7537 25.7198L61.7537 25.7198L61.7564 26.2198ZM107.257 15.4901L107.731 15.6502C107.793 15.4653 107.743 15.2609 107.601 15.1268C107.459 14.9927 107.252 14.9533 107.071 15.026L107.257 15.4901ZM87.7907 53.8616L88.1829 54.1717L88.1829 54.1717L87.7907 53.8616ZM85.6421 56.4526L85.4967 56.931C85.6851 56.9883 85.8897 56.9296 86.0191 56.7811L85.6421 56.4526ZM60.743 51.9599L60.7418 52.4599L60.7418 52.4599L60.743 51.9599ZM39.5247 59.6405L39.3778 59.1625C39.212 59.2135 39.0844 59.3467 39.0408 59.5146C38.9971 59.6825 39.0435 59.861 39.1635 59.9862L39.5247 59.6405ZM63.0513 70.1978L63.0015 69.7003L63.0015 69.7003L63.0513 70.1978ZM82.5881 59.7155L82.94 60.0707C83.0657 59.9462 83.1163 59.7644 83.0728 59.5927C83.0293 59.4211 82.8984 59.2853 82.7285 59.2356L82.5881 59.7155ZM60.7335 55.9599L60.7347 55.4599L60.7347 55.4599L60.7335 55.9599ZM16.9448 2.47659C16.6555 1.12653 15.3265 0.266608 13.9764 0.555908L14.186 1.53371C14.996 1.36013 15.7934 1.87608 15.967 2.68612L16.9448 2.47659ZM16.3775 11.2805C17.5601 8.61276 17.5857 5.46738 16.9448 2.47659L15.967 2.68612C16.5806 5.5497 16.5324 8.46343 15.4633 10.8752L16.3775 11.2805ZM61.732 21.7198C47.9504 21.7946 34.0538 18.2316 16.1157 10.6176L15.725 11.5381C33.7279 19.1796 47.7667 22.7956 61.7374 22.7198L61.732 21.7198ZM107.378 10.5857C89.4186 17.9307 75.5163 21.6451 61.732 21.7198L61.7374 22.7198C75.7063 22.644 89.7458 18.8773 107.756 11.5113L107.378 10.5857ZM106.556 2.47659C105.917 5.45593 105.94 8.58851 107.109 11.2496L108.025 10.8474C106.968 8.44098 106.922 5.53859 107.534 2.68612L106.556 2.47659ZM109.524 0.555908C108.174 0.266609 106.845 1.12653 106.556 2.47659L107.534 2.68612C107.707 1.87608 108.505 1.36013 109.315 1.53371L109.524 0.555908ZM111.445 3.52424C111.734 2.17417 110.874 0.845207 109.524 0.555908L109.315 1.53371C110.125 1.70729 110.641 2.50467 110.467 3.31471L111.445 3.52424ZM112.312 10.2807C111.223 8.91275 110.787 6.59466 111.445 3.52424L110.467 3.31471C109.776 6.53861 110.18 9.20921 111.53 10.9038L112.312 10.2807ZM112.521 10.5275C112.446 10.4248 112.364 10.3289 112.276 10.2402L111.566 10.9443C111.619 10.9973 111.668 11.0546 111.712 11.116L112.521 10.5275ZM120.129 12.0281C115.776 12.681 113.573 11.6799 112.487 10.4854L111.747 11.1582C113.141 12.6915 115.739 13.6978 120.278 13.017L120.129 12.0281ZM122.973 14.1296C122.768 12.7641 121.495 11.8233 120.129 12.0281L120.278 13.017C121.097 12.8941 121.861 13.4586 121.984 14.2779L122.973 14.1296ZM120.871 16.9728C122.237 16.7679 123.177 15.495 122.973 14.1296L121.984 14.2779C122.107 15.0972 121.542 15.8609 120.723 15.9838L120.871 16.9728ZM111.279 15.8012C113.779 17.1616 117.034 17.5483 120.871 16.9728L120.723 15.9838C117.02 16.5392 114.005 16.1459 111.756 14.9228L111.279 15.8012ZM91.3208 56.6524C99.2538 46.6177 106.326 32.6823 111.992 15.5187L111.043 15.2052C105.4 32.2954 98.3756 46.1161 90.5364 56.0322L91.3208 56.6524ZM63.499 74.6755C73.4971 73.6757 82.9881 67.1927 91.3208 56.6524L90.5364 56.0322C82.2929 66.4597 73.0232 72.7181 63.3995 73.6805L63.499 74.6755ZM34.5123 60.8296C43.4745 71.0362 53.3967 75.6857 63.499 74.6755L63.3995 73.6805C53.7135 74.6491 44.0851 70.2159 35.2638 60.1698L34.5123 60.8296ZM11.4892 15.5247C18.1125 36.1285 25.9599 51.0899 34.5123 60.8296L35.2638 60.1698C26.836 50.5719 19.042 35.7527 12.4412 15.2187L11.4892 15.5247ZM2.62942 16.9728C6.45686 17.5469 9.70491 17.1635 12.2032 15.8114L11.7272 14.932C9.48064 16.1479 6.47127 16.5378 2.77776 15.9838L2.62942 16.9728ZM0.527931 14.1296C0.323116 15.495 1.26398 16.7679 2.62942 16.9728L2.77776 15.9838C1.9585 15.8609 1.39398 15.0972 1.51687 14.2779L0.527931 14.1296ZM3.37112 12.0281C2.00569 11.8233 0.732747 12.7641 0.527931 14.1296L1.51687 14.2779C1.63976 13.4586 2.40352 12.8941 3.22278 13.017L3.37112 12.0281ZM11.0141 10.4853C9.92809 11.6798 7.72435 12.6811 3.37112 12.0281L3.22278 13.017C7.76125 13.6978 10.3599 12.6914 11.754 11.158L11.0141 10.4853ZM11.2243 10.2401C11.1364 10.3287 11.0546 10.4246 10.9798 10.5274L11.7883 11.1159C11.833 11.0545 11.8819 10.9972 11.9344 10.9442L11.2243 10.2401ZM12.0558 3.52424C12.7137 6.59458 12.278 8.91263 11.1883 10.2806L11.9705 10.9037C13.3204 9.20907 13.7244 6.53853 13.0336 3.31471L12.0558 3.52424ZM13.9764 0.555908C12.6264 0.845207 11.7665 2.17417 12.0558 3.52424L13.0336 3.31471C12.86 2.50467 13.3759 1.70729 14.186 1.53371L13.9764 0.555908ZM15.7523 15.7011C21.831 34.2128 28.8353 47.6876 36.2329 56.678L37.0051 56.0426C29.714 47.1817 22.7588 33.8329 16.7024 15.3892L15.7523 15.7011ZM61.7537 25.7198C47.717 25.7959 33.7462 22.2792 16.4192 15.0834L16.0356 16.0069C33.4305 23.2309 47.5397 26.7969 61.7591 26.7197L61.7537 25.7198ZM107.071 15.026C89.7532 21.9778 75.7848 25.6437 61.7537 25.7198L61.7591 26.7197C75.9689 26.6427 90.0708 22.9278 107.444 15.9541L107.071 15.026ZM88.1829 54.1717C95.536 44.8706 102.247 31.8678 107.731 15.6502L106.784 15.3299C101.324 31.4751 94.6602 44.366 87.3985 53.5516L88.1829 54.1717ZM86.0191 56.7811C86.7449 55.948 87.4664 55.0781 88.1829 54.1717L87.3985 53.5516C86.6914 54.446 85.9801 55.3035 85.2651 56.1242L86.0191 56.7811ZM60.7418 52.4599C68.2954 52.4777 75.8846 54.0077 85.4967 56.931L85.7876 55.9743C76.132 53.0377 68.4368 51.4781 60.7441 51.4599L60.7418 52.4599ZM36.7716 56.8365C45.9192 53.9061 53.2653 52.4423 60.7418 52.4599L60.7441 51.4599C53.1261 51.442 45.6704 52.9358 36.4665 55.8841L36.7716 56.8365ZM39.1635 59.9862C47.0543 68.2284 55.2142 71.484 63.101 70.6954L63.0015 69.7003C55.4993 70.4505 47.6252 67.3788 39.8858 59.2947L39.1635 59.9862ZM63.101 70.6954C69.7692 70.0285 76.502 66.4471 82.94 60.0707L82.2363 59.3602C75.9065 65.6295 69.3753 69.0629 63.0015 69.7003L63.101 70.6954ZM82.7285 59.2356C74.1592 56.7293 67.3891 55.4756 60.7347 55.4599L60.7324 56.4599C67.2567 56.4753 73.9266 57.7032 82.4477 60.1954L82.7285 59.2356ZM60.7347 55.4599C54.1319 55.4444 47.5599 56.6477 39.3778 59.1625L39.6715 60.1184C47.7941 57.6219 54.2619 56.4447 60.7324 56.4599L60.7347 55.4599Z" fill="black"/>
</svg>
