<svg width="100" height="29" viewBox="0 0 100 29" fill="none" xmlns="http://www.w3.org/2000/svg">
<path d="M96.3359 27.8594C96.9486 28.7785 98.1903 29.0268 99.1094 28.4141C100.028 27.8014 100.277 26.5597 99.6641 25.6406L96.3359 27.8594ZM0.289603 25.7134C-0.282896 26.6581 0.0187723 27.8879 0.963398 28.4604C1.90802 29.0329 3.1379 28.7313 3.7104 27.7866L0.289603 25.7134ZM39.1026 18.1175C38.7533 19.1654 39.3197 20.2981 40.3675 20.6474C41.4154 20.9967 42.5481 20.4303 42.8974 19.3825L39.1026 18.1175ZM58.1026 19.3825C58.4519 20.4303 59.5846 20.9967 60.6325 20.6474C61.6803 20.2981 62.2467 19.1654 61.8974 18.1175L58.1026 19.3825ZM99.6641 25.6406C88.2315 8.4917 68.5493 2.03307e-06 49.25 -2.38419e-06C29.9531 -6.8009e-06 10.7247 8.49556 0.289603 25.7134L3.7104 27.7866C13.2753 12.0044 31.0469 3.99999 49.25 4C67.4507 4 85.7685 12.0083 96.3359 27.8594L99.6641 25.6406ZM42.8974 19.3825C45.2896 12.2058 55.7104 12.2058 58.1026 19.3825L61.8974 18.1175C58.2896 7.29415 42.7104 7.29415 39.1026 18.1175L42.8974 19.3825Z" fill="black"/>
</svg>
