<svg width="113" height="50" viewBox="0 0 113 50" fill="none" xmlns="http://www.w3.org/2000/svg">
<path d="M64.5 25C64.5 37.38 74.7505 47.5 87.5 47.5C100.249 47.5 110.5 37.38 110.5 25C110.5 22.8139 110.182 20.7045 109.59 18.7116C106.817 9.37101 97.9967 2.5 87.5 2.5C75.5334 2.5 65.7606 11.422 64.6132 22.7519C64.5384 23.4906 64.5 24.2405 64.5 25Z" fill="white" stroke="black" stroke-width="5"/>
<path d="M111 18C100.962 20.5413 89.4437 21.3037 63 22" stroke="black" stroke-width="5"/>
<circle r="7.5" transform="matrix(-1 0 0 1 87.5 28.5)" fill="black"/>
<path d="M48.5 25C48.5 37.38 38.2495 47.5 25.5 47.5C12.7505 47.5 2.5 37.38 2.5 25C2.5 22.8139 2.81795 20.7045 3.40969 18.7116C6.18302 9.37101 15.0033 2.5 25.5 2.5C37.4666 2.5 47.2394 11.422 48.3868 22.7519C48.4616 23.4906 48.5 24.2405 48.5 25Z" fill="white" stroke="black" stroke-width="5"/>
<path d="M2 18C12.0383 20.5413 23.5563 21.3037 50 22" stroke="black" stroke-width="5"/>
<circle cx="25.5" cy="28.5" r="7.5" fill="black"/>
</svg>
