<svg width="113" height="54" viewBox="0 0 113 54" fill="none" xmlns="http://www.w3.org/2000/svg">
<path d="M48.5 27C48.5 40.6675 38.0698 51.5 25.5 51.5C12.9302 51.5 2.5 40.6675 2.5 27C2.5 24.601 2.82316 22.287 3.42366 20.1027C6.24426 9.84296 15.1336 2.5 25.5 2.5C37.3053 2.5 47.2138 12.0436 48.385 24.5334C48.461 25.3439 48.5 26.1668 48.5 27Z" fill="white" stroke="black" stroke-width="5"/>
<circle cx="31.5" cy="30.5" r="7.5" fill="black"/>
<path d="M64.5 27C64.5 40.6675 74.9302 51.5 87.5 51.5C100.07 51.5 110.5 40.6675 110.5 27C110.5 24.601 110.177 22.287 109.576 20.1027C106.756 9.84296 97.8664 2.5 87.5 2.5C75.6947 2.5 65.7862 12.0436 64.615 24.5334C64.539 25.3439 64.5 26.1668 64.5 27Z" fill="white" stroke="black" stroke-width="5"/>
<circle r="7.5" transform="matrix(-1 0 0 1 81.5 30.5)" fill="black"/>
</svg>
