<svg height="100%" viewBox="0 0 400 654" fill="none" xmlns="http://www.w3.org/2000/svg"
    xmlns:xlink="http://www.w3.org/1999/xlink">
    <path
        d="M0 10.1203C0 4.53099 4.47715 0 10 0H390C395.523 0 400 4.53099 400 10.1202V642.636C400 648.225 395.523 652.756 390 652.756H9.99999C4.47714 652.756 0 648.225 0 642.636V10.1203Z"
        fill="#E5B372" />
    <g>
        <path fill-rule="evenodd" clip-rule="evenodd" d="M350 65.0723L50 65.0722L50 62.022L350 62.022L350 65.0723Z"
            fill="black" fill-opacity="0.5" />
        <path fill-rule="evenodd" clip-rule="evenodd" d="M350 100.659L50 100.659L50 97.6084L350 97.6084L350 100.659Z"
            fill="black" fill-opacity="0.5" />
        <path fill-rule="evenodd" clip-rule="evenodd" d="M350 207.418L50 207.418L50 204.368L350 204.368L350 207.418Z"
            fill="black" fill-opacity="0.5" />
        <path fill-rule="evenodd" clip-rule="evenodd" d="M350 243.004L50 243.004L50 239.954L350 239.954L350 243.004Z"
            fill="black" fill-opacity="0.5" />
        <path fill-rule="evenodd" clip-rule="evenodd" d="M350 349.763L50 349.763L50 346.713L350 346.713L350 349.763Z"
            fill="black" fill-opacity="0.5" />
        <path fill-rule="evenodd" clip-rule="evenodd" d="M350 385.35L50 385.35L50 382.299L350 382.299L350 385.35Z"
            fill="black" fill-opacity="0.5" />
        <path fill-rule="evenodd" clip-rule="evenodd" d="M350 492.109L50 492.109L50 489.059L350 489.059L350 492.109Z"
            fill="black" fill-opacity="0.5" />
        <path fill-rule="evenodd" clip-rule="evenodd" d="M350 598.868L50 598.868L50 595.818L350 595.818L350 598.868Z"
            fill="black" fill-opacity="0.5" />
    </g>
    <!-- <image id="cook" x="118" y="111" width="80" height="80" href="./images/Pedido/rabisco.png" /> -->
    <text id="cookTime" class="numbersvg" x="160" y="165" width="80" height="80" fill="black">
        00
    </text>
    <image id="broth" x="160" y="253" width="80" height="80" href="./images/order/rabisco.png" />

    <image id="ingredient1" class="ingredient i1" x="69" y="393" width="80" height="80"
        href="./images/order/rabisco.png" />
    <text id="num1" class="numbersvg i1" x="155" y="445" fill="black">
        00
    </text>
    <image id="ingredient2" class="ingredient i2" x="204" y="393" width="80" height="80"
        href="./images/order/rabisco.png" />
    <text id="num2" class="numbersvg i2" x="290" y="445" fill="black">
        00
    </text>
    <image id="ingredient3" class="ingredient i3" x="70" y="498" width="80" height="80"
        href="./images/order/rabisco.png" />
    <text id="num3" class="numbersvg i3" x="155" y="550" fill="black">
        00
    </text>
    <image id="ingredient4" class="ingredient i4" x="204" y="498" width="80" height="80"
        href="./images/order/rabisco.png" />
    <text id="num4" class="numbersvg i4" x="290" y="550" fill="black">
        00
    </text>
    <text id="orderNum" class="numbersvg id" x="250" y="60" fill="black">
        0000
    </text>
</svg>