<svg height="100%" viewBox="0 80 400 644" fill="none" xmlns="http://www.w3.org/2000/svg"
    xmlns:xlink="http://www.w3.org/1999/xlink">
    <!-- 0 80 400 644 -->
    <!-- 0 0 400 723 -->
    <path
        d="M0 90.9535C0 85.4563 4.47715 81 10 81H390C395.523 81 400 85.4563 400 90.9535V713.047C400 718.544 395.523 723 390 723H9.99999C4.47714 723 0 718.544 0 713.047V90.9535Z"
        fill="#E5B372" stroke="black" stroke-width="3" />
    <g>
        <line x1="50" y1="143.5" x2="350" y2="143.5" stroke="black" stroke-opacity="0.5" stroke-width="3" />
        <line x1="50" y1="178.5" x2="350" y2="178.5" stroke="black" stroke-opacity="0.5" stroke-width="3" />
        <!-- <line x1="50" y1="213.5" x2="350" y2="213.5" stroke="black" stroke-opacity="0.5" stroke-width="3" /> -->
        <!-- <line x1="50" y1="248.5" x2="350" y2="248.5" stroke="black" stroke-opacity="0.5" stroke-width="3" /> -->
        <line x1="50" y1="283.5" x2="350" y2="283.5" stroke="black" stroke-opacity="0.5" stroke-width="3" />
        <line x1="50" y1="318.5" x2="350" y2="318.5" stroke="black" stroke-opacity="0.5" stroke-width="3" />
        <!-- <line x1="50" y1="353.5" x2="350" y2="353.5" stroke="black" stroke-opacity="0.5" stroke-width="3" /> -->
        <!-- <line x1="50" y1="388.5" x2="350" y2="388.5" stroke="black" stroke-opacity="0.5" stroke-width="3" /> -->
        <line x1="50" y1="423.5" x2="350" y2="423.5" stroke="black" stroke-opacity="0.5" stroke-width="3" />
        <line x1="50" y1="458.5" x2="350" y2="458.5" stroke="black" stroke-opacity="0.5" stroke-width="3" />
        <!-- <line x1="50" y1="493.5" x2="350" y2="493.5" stroke="black" stroke-opacity="0.5" stroke-width="3" /> -->
        <!-- <line x1="50" y1="528.5" x2="350" y2="528.5" stroke="black" stroke-opacity="0.5" stroke-width="3" /> -->
        <line x1="50" y1="563.5" x2="350" y2="563.5" stroke="black" stroke-opacity="0.5" stroke-width="3" />
        <!-- <line x1="50" y1="598.5" x2="350" y2="598.5" stroke="black" stroke-opacity="0.5" stroke-width="3" /> -->
        <!-- <line x1="50" y1="633.5" x2="350" y2="633.5" stroke="black" stroke-opacity="0.5" stroke-width="3" /> -->
        <line x1="50" y1="668.5" x2="350" y2="668.5" stroke="black" stroke-opacity="0.5" stroke-width="3" />
    </g>
    <g id="clothespin">
        <path id="wood"
            d="M178.398 0.971225C178.398 0.434833 178.941 0 179.612 0H220.146C220.816 0 221.359 0.434831 221.359 0.971223V161.029C221.359 161.565 220.816 162 220.146 162H179.612C178.941 162 178.398 161.565 178.398 161.029V0.971225Z"
            fill="#FF0000" />
        <path id="wire"
            d="M178.398 52.8345H175V107.223C175 110.012 177.825 112.273 181.311 112.273H218.689C222.175 112.273 225 110.012 225 107.223V52.8345H221.359V107.417C221.359 108.49 220.273 109.36 218.932 109.36H180.825C179.485 109.36 178.398 108.49 178.398 107.417V52.8345Z"
            fill="#858383" />
    </g>
    <!-- <image id="cook" x="118" y="111" width="80" height="80" href="./images/Pedido/rabisco.png" /> -->
    <rect id="backtimesvg" width="100" height="65" x="150" y="200" rx="8" ry="10" />
    <text class="numbertime" x="170" y="253" fill="rgba(211, 211, 211, 0.2)">
        00
    </text>
    <text id="cookTime" class="numbertime" x="170" y="253" fill="crimson">
        00
    </text>
    <image id="broth" x="150" y="323" width="100" height="100" href="" />

    <image id="ingredient1" class="ingredient i1" x="69" y="473" width="80" height="80" href="" />
    <text id="num1" class="numbersvg i1" x="155" y="525" fill="black">
        10
    </text>
    <image id="ingredient2" class="ingredient i2" x="209" y="473" width="80" height="80" href="" />
    <text id="num2" class="numbersvg i2" x="290" y="525" fill="black">
        10
    </text>
    <image id="ingredient3" class="ingredient i3" x="70" y="578" width="80" height="80" href="" />
    <text id="num3" class="numbersvg i3" x="155" y="630" fill="black">
        10
    </text>
    <image id="ingredient4" class="ingredient i4" x="209" y="578" width="80" height="80" href="" />
    <text id="num4" class="numbersvg i4" x="290" y="630" fill="black">
        10
    </text>
    <text id="orderNum" class="numbersvg id" x="250" y="140" fill="black">
        0001
    </text>
</svg>